<svg width="15" height="17" viewBox="0 0 15 17" fill="none" xmlns="http://www.w3.org/2000/svg">
<g clip-path="url(#clip0_6_142)">
<mask id="mask0_6_142" style="mask-type:luminance" maskUnits="userSpaceOnUse" x="-3" y="-23" width="31" height="45">
<path d="M-2.86084 21.5446H27.3839V-22.1047H-2.86084V21.5446Z" fill="white"/>
</mask>
<g mask="url(#mask0_6_142)">
<path d="M4.10943 10.8406C3.78146 10.8406 3.51416 11.1252 3.51416 11.4755C3.51416 11.8323 3.77247 12.1113 4.10135 12.1113C4.43023 12.1113 4.68894 11.8331 4.68894 11.4798C4.69265 11.3119 4.63595 11.1532 4.52808 11.0312C4.41854 10.9083 4.27008 10.8406 4.10943 10.8406Z" fill="#ED1D24"/>
</g>
<path d="M3.63799 16.4031H4.56152V12.4293L3.6377 12.5921L3.63799 16.4031Z" fill="#ED1D24"/>
<mask id="mask1_6_142" style="mask-type:luminance" maskUnits="userSpaceOnUse" x="-3" y="-23" width="31" height="45">
<path d="M-2.64893 21.5446H27.5958V-22.1047H-2.64893V21.5446Z" fill="white"/>
</mask>
<g mask="url(#mask1_6_142)">
<path d="M2.0079 15.6536C1.91645 15.7227 1.7311 15.7822 1.52843 15.7822C1.15717 15.7822 0.989861 15.4741 0.996314 15.1156C1.00261 14.819 1.17414 14.4817 1.63776 14.4817H2.0079V15.6536ZM1.62684 12.3585C1.18573 12.3585 0.78917 12.4929 0.38169 12.7126L0.277534 12.7696L0.525629 13.3677L0.666011 13.2963C0.954092 13.1563 1.26199 13.0631 1.53848 13.0756C1.87255 13.0902 2.01024 13.2562 2.01024 13.6023V13.8053H1.46182C0.582178 13.8053 0.0344688 14.3093 0.0195312 15.0909C0.0195312 15.8348 0.592645 16.4752 1.39053 16.4752C2.03412 16.4752 2.57878 16.2499 2.94663 15.852V13.7314C2.94663 12.6982 2.26407 12.359 1.62628 12.359M11.4564 13.1324C11.8666 13.1324 11.9271 13.6138 11.9271 13.9127H10.9274C10.9434 13.5282 11.0919 13.1324 11.4564 13.1324ZM11.6562 15.7753C11.4031 15.7753 11.232 15.685 11.1198 15.555C10.9542 15.3603 10.8798 14.962 10.9001 14.5388H12.8917V14.4393C12.8741 13.0309 12.43 12.3898 11.4564 12.3898C10.3709 12.3898 9.94745 13.4691 9.93953 14.4828C9.93292 15.1237 10.1566 15.7703 10.5666 16.1376C10.8163 16.3619 11.161 16.4856 11.5622 16.4856C11.7807 16.4856 12.0085 16.4515 12.2176 16.381C12.617 16.2477 12.9121 16.0165 12.9121 16.0165L12.6513 15.4374C12.6042 15.4755 12.2057 15.7756 11.6567 15.7756M5.30066 13.1421L5.29964 16.407H6.24162V13.3335C6.36443 13.2042 6.62507 13.0902 6.87296 13.0798C7.10241 13.0698 7.25097 13.1213 7.25097 13.1213L7.51162 12.4895C7.41071 12.4353 7.16943 12.3692 6.88902 12.3692C6.48438 12.3692 5.86117 12.4971 5.30066 13.1417M14.8491 15.7777C14.4651 15.7459 14.3847 15.5638 14.3847 15.2603V11.3282L13.4585 11.4989V15.1953C13.4585 16.0711 13.8992 16.447 14.6357 16.447C14.7932 16.447 14.9896 16.407 14.9896 16.407V15.7799C14.9896 15.7799 14.9022 15.7825 14.849 15.7778M9.00547 11.3335L8.05867 11.4981V15.2125C8.05867 16.0441 8.50852 16.4384 9.26271 16.4384C9.4442 16.4384 9.61441 16.4012 9.61441 16.4012V15.7833C9.60414 15.7823 9.53464 15.7823 9.48119 15.78C9.08336 15.7652 9.00547 15.5279 9.00547 15.2548V13.1647H9.61441V12.4311H9.00547V11.3335Z" fill="#ED1D24"/>
</g>
<mask id="mask2_6_142" style="mask-type:luminance" maskUnits="userSpaceOnUse" x="-38" y="-80" width="194" height="280">
<path d="M-37.5942 199.588H155.957V-79.7451H-37.5942V199.588Z" fill="white"/>
</mask>
<g mask="url(#mask2_6_142)">
<path d="M6.95296 9.00718C7.46247 8.80877 7.86662 8.53271 8.25354 8.26596L8.35954 8.19496C8.77247 7.91393 9.17565 7.58545 9.59022 7.19394C10.5078 6.32697 11.0586 5.47628 11.374 4.43811C11.5027 4.01574 11.6829 3.19555 11.4618 2.42513C11.2992 1.86441 10.9838 1.40124 10.5266 1.05286C10.474 1.00508 9.90333 0.51204 8.82613 0.51204C7.84094 0.51204 6.76145 0.92213 5.61694 1.73302L5.58117 1.75791L5.57564 1.76188C5.54109 1.78453 5.50706 1.808 5.47355 1.83223C5.44754 1.85413 5.41892 1.87437 5.38511 1.89859C5.151 2.07013 4.92665 2.25691 4.72019 2.45466C4.2367 2.95998 3.68525 3.80439 3.71874 4.52271C3.73337 4.8263 3.85107 5.07513 4.06827 5.25928C4.26336 5.42418 4.50819 5.50812 4.79497 5.50812C5.38088 5.50812 6.02337 5.16372 6.46297 4.87241C6.4906 4.85084 6.51824 4.82994 6.54653 4.81169L6.77641 4.6458L6.85119 4.59072C7.47547 4.13882 8.11926 3.67035 8.84986 3.39762C9.03942 3.32728 9.20427 3.29477 9.35611 3.29477C9.43089 3.29477 9.50503 3.3014 9.57526 3.31998C9.79701 3.37472 9.95893 3.51075 10.0555 3.72376C10.2236 4.09669 10.1836 4.68595 9.95405 5.22013C9.64061 5.95073 9.10217 6.67236 8.35499 7.36249C7.97327 7.71418 7.62179 7.98625 7.30867 8.1694L7.28039 8.18599C7.13407 8.27325 6.96955 8.37179 6.79527 8.44147L6.77153 8.45143C6.72016 8.47234 6.67594 8.49124 6.63497 8.5055C5.90404 8.71685 6.34884 8.0211 6.34884 8.0211C6.50979 7.81473 6.67399 7.64816 6.84826 7.47464L7.15195 7.15943L7.17471 7.1339C7.30217 6.99587 7.4771 6.80742 7.46734 6.53668C7.45206 6.17602 7.11521 5.95107 6.79657 5.94145H6.7738C6.46882 5.94145 6.17944 6.13587 5.99021 6.29746C5.78438 6.48264 5.60732 6.69866 5.4651 6.93813C5.27098 7.27158 4.8613 8.12263 5.26025 8.80214C5.41957 9.07354 5.68619 9.21155 6.05198 9.21155C6.30722 9.21155 6.60896 9.14453 6.95004 9.01115" fill="#ED1D24"/>
</g>
</g>
<defs>
<clipPath id="clip0_6_142">
<rect width="15" height="16" fill="white" transform="translate(0 0.5)"/>
</clipPath>
</defs>
</svg>
