<svg width="25" height="31" viewBox="0 0 25 31" fill="none" xmlns="http://www.w3.org/2000/svg">
<path d="M25 22.6352C24.5334 24.1877 23.7976 25.7402 22.7925 27.2927C21.2491 29.727 19.7117 30.9441 18.1802 30.9441C17.5939 30.9441 16.7564 30.7454 15.6676 30.348C14.6387 29.9505 13.7353 29.7518 12.9576 29.7518C12.2278 29.7518 11.3783 29.9567 10.4092 30.3666C9.44006 30.7889 8.65039 31 8.0402 31C6.22158 31 4.42091 29.3916 2.63819 26.1749C0.879397 22.9333 0 19.8097 0 16.8041C0 13.9724 0.675999 11.6498 2.028 9.83654C3.38 8.04808 5.07897 7.15385 7.12491 7.15385C7.98636 7.15385 9.04523 7.34014 10.3015 7.71274C11.5458 8.08534 12.3714 8.27164 12.7782 8.27164C13.3166 8.27164 14.1721 8.0605 15.3446 7.63822C16.565 7.21595 17.5999 7.00481 18.4494 7.00481C19.8732 7.00481 21.1474 7.40845 22.2721 8.21574C22.8942 8.66286 23.5164 9.28385 24.1385 10.0787C23.1933 10.9109 22.5114 11.6436 22.0926 12.277C21.3149 13.4445 20.9261 14.73 20.9261 16.1334C20.9261 17.6735 21.3388 19.0583 22.1644 20.2879C22.9899 21.5174 23.9352 22.2999 25 22.6352ZM18.252 0.782452C18.252 1.54006 18.0785 2.38462 17.7315 3.31611C17.3726 4.2476 16.8162 5.10457 16.0625 5.88702C15.4164 6.55769 14.7703 7.00481 14.1242 7.22837C13.6815 7.36498 13.0593 7.47055 12.2577 7.54507C12.2936 5.69451 12.7602 4.09856 13.6576 2.75721C14.543 1.42829 16.0385 0.509215 18.1443 0C18.1563 0.0372596 18.1712 0.105569 18.1892 0.204928C18.2071 0.304287 18.2221 0.372596 18.234 0.409856C18.234 0.459535 18.237 0.521635 18.243 0.596154C18.249 0.670673 18.252 0.732772 18.252 0.782452Z" fill="#DDDDDD"/>
</svg>
