<svg width="32" height="32" viewBox="0 0 32 32" fill="none" xmlns="http://www.w3.org/2000/svg">
<path d="M4.98844 27.406C6.58793 29.3333 9.56486 29.3333 15.5187 29.3333H16.4803C22.4342 29.3333 25.4111 29.3333 27.0106 27.406M4.98844 27.406C3.38893 25.4788 3.93754 22.5528 5.03478 16.7009C5.81508 12.5394 6.20522 10.4586 7.68642 9.22928M27.0106 27.406C28.6101 25.4788 28.0615 22.5528 26.9643 16.7009C26.1839 12.5394 25.7938 10.4586 24.3126 9.22928M24.3126 9.22928C22.8314 8 20.7145 8 16.4803 8H15.5187C11.2847 8 9.16762 8 7.68642 9.22928" stroke="white" stroke-width="1.5"/>
<path opacity="0.5" d="M12 8.00008V6.66675C12 4.45761 13.7908 2.66675 16 2.66675C18.2092 2.66675 20 4.45761 20 6.66675V8.00008" stroke="white" stroke-width="1.5" stroke-linecap="round"/>
</svg>
