<svg width="22" height="23" viewBox="0 0 22 23" fill="none" xmlns="http://www.w3.org/2000/svg">
<path d="M8.17332 18.8151C7.83631 18.8151 7.50687 18.9143 7.22666 19.1001C6.94645 19.2859 6.72805 19.5501 6.59908 19.8591C6.47011 20.1681 6.43637 20.5081 6.50212 20.8362C6.56786 21.1642 6.73015 21.4655 6.96845 21.7021C7.20675 21.9386 7.51037 22.0996 7.8409 22.1649C8.17143 22.2301 8.51404 22.1966 8.82539 22.0686C9.13675 21.9406 9.40287 21.7239 9.5901 21.4458C9.77734 21.1677 9.87727 20.8407 9.87727 20.5062C9.87727 20.0577 9.69775 19.6276 9.3782 19.3104C9.05864 18.9933 8.62524 18.8151 8.17332 18.8151ZM20.101 15.4328H6.46938C6.1681 15.4328 5.87916 15.314 5.66613 15.1026C5.45309 14.8912 5.33341 14.6044 5.33341 14.3054C5.33341 14.0064 5.45309 13.7196 5.66613 13.5082C5.87916 13.2968 6.1681 13.178 6.46938 13.178H16.1151C16.8551 13.1756 17.5744 12.9353 18.1652 12.4931C18.756 12.0508 19.1865 11.4305 19.3921 10.725L21.1931 4.46852C21.2414 4.30073 21.2498 4.1241 21.2177 3.95253C21.1855 3.78096 21.1137 3.61914 21.0078 3.47981C20.902 3.34047 20.7649 3.22743 20.6076 3.14958C20.4502 3.07173 20.2768 3.0312 20.101 3.03117H6.17297C5.93781 2.37429 5.50431 1.80533 4.93153 1.40183C4.35876 0.998331 3.67457 0.779907 2.97218 0.776321H1.92552C1.62424 0.776321 1.3353 0.895103 1.12227 1.10654C0.909232 1.31797 0.789551 1.60473 0.789551 1.90375C0.789551 2.20276 0.909232 2.48952 1.12227 2.70095C1.3353 2.91239 1.62424 3.03117 1.92552 3.03117H2.97218C3.21878 3.03202 3.45846 3.11214 3.65535 3.25951C3.85223 3.40688 3.99572 3.61358 4.06432 3.84866L4.24099 4.46282L4.24126 4.46852L6.10496 10.9424C5.23772 11.035 4.43926 11.4541 3.874 12.1134C3.30873 12.7727 3.01969 13.622 3.0664 14.4864C3.1131 15.3509 3.49198 16.1646 4.12504 16.7602C4.7581 17.3557 5.59713 17.6877 6.46938 17.6877H20.101C20.4022 17.6877 20.6912 17.5689 20.9042 17.3575C21.1172 17.146 21.2369 16.8593 21.2369 16.5603C21.2369 16.2612 21.1172 15.9745 20.9042 15.763C20.6912 15.5516 20.4022 15.4328 20.101 15.4328ZM18.595 5.28602L17.2078 10.1051C17.1393 10.3404 16.9957 10.5473 16.7987 10.6947C16.6017 10.8422 16.3619 10.9224 16.1151 10.9231H8.4623L8.1727 9.91724L6.84018 5.28602H18.595ZM17.261 18.8151C16.924 18.8151 16.5946 18.9143 16.3144 19.1001C16.0342 19.2859 15.8158 19.5501 15.6868 19.8591C15.5578 20.1681 15.5241 20.5081 15.5898 20.8362C15.6556 21.1642 15.8179 21.4655 16.0562 21.7021C16.2945 21.9386 16.5981 22.0996 16.9286 22.1649C17.2592 22.2301 17.6018 22.1966 17.9131 22.0686C18.2245 21.9406 18.4906 21.7239 18.6778 21.4458C18.8651 21.1677 18.965 20.8407 18.965 20.5062C18.965 20.0577 18.7855 19.6276 18.4659 19.3104C18.1464 18.9933 17.713 18.8151 17.261 18.8151Z" fill="white"/>
</svg>
