<svg width="32" height="32" viewBox="0 0 32 32" fill="none" xmlns="http://www.w3.org/2000/svg">
<path d="M2.66797 18.6667C2.66797 13.6384 2.66797 11.1242 4.23006 9.56209C5.79217 8 8.30632 8 13.3346 8H18.668C23.6962 8 26.2105 8 27.7725 9.56209C29.3346 11.1242 29.3346 13.6384 29.3346 18.6667C29.3346 23.6949 29.3346 26.2092 27.7725 27.7712C26.2105 29.3333 23.6962 29.3333 18.668 29.3333H13.3346C8.30632 29.3333 5.79217 29.3333 4.23006 27.7712C2.66797 26.2092 2.66797 23.6949 2.66797 18.6667Z" stroke="white" stroke-width="1.5"/>
<path opacity="0.5" d="M21.3346 8.00008C21.3346 5.48592 21.3346 4.22884 20.5536 3.4478C19.7725 2.66675 18.5154 2.66675 16.0013 2.66675C13.4872 2.66675 12.2301 2.66675 11.449 3.4478C10.668 4.22884 10.668 5.48592 10.668 8.00008" stroke="white" stroke-width="1.5"/>
<path opacity="0.5" d="M15.9987 23.111C17.4715 23.111 18.6654 22.1161 18.6654 20.8889C18.6654 19.6615 17.4715 18.6666 15.9987 18.6666C14.5259 18.6666 13.332 17.6717 13.332 16.4443C13.332 15.2171 14.5259 14.2222 15.9987 14.2222M15.9987 23.111C14.5259 23.111 13.332 22.1161 13.332 20.8889M15.9987 23.111V23.9999M15.9987 14.2222V13.3333M15.9987 14.2222C17.4715 14.2222 18.6654 15.2171 18.6654 16.4443" stroke="white" stroke-width="1.5" stroke-linecap="round"/>
</svg>
