<svg width="38" height="40" viewBox="0 0 38 40" fill="none" xmlns="http://www.w3.org/2000/svg">
<path d="M0.753906 37.4736V2.68624C0.754139 2.61077 0.77665 2.53704 0.818615 2.47431C0.86058 2.41158 0.920132 2.36263 0.989803 2.33361C1.05947 2.30459 1.13616 2.29678 1.21025 2.31117C1.28434 2.32556 1.35254 2.3615 1.40628 2.41449L19.5196 20.079L1.40628 37.7454C1.35254 37.7984 1.28434 37.8343 1.21025 37.8487C1.13616 37.8631 1.05947 37.8553 0.989803 37.8262C0.920132 37.7972 0.86058 37.7483 0.818615 37.6855C0.77665 37.6228 0.754139 37.5491 0.753906 37.4736ZM27.1144 27.3375L4.4026 39.8503L4.38843 39.8583C3.99719 40.0707 3.62541 39.5414 3.94585 39.2333L21.7494 22.2097L27.1144 27.3375ZM3.94762 0.92474C3.62541 0.616699 3.99719 0.0873642 4.39021 0.299809L4.40437 0.307777L27.1144 12.8206L21.7494 17.9502L3.94762 0.92474ZM36.2831 22.292L29.9408 25.7849L23.9774 20.079L29.9408 14.3759L36.2831 17.8661C38.0083 18.8194 38.0083 21.3386 36.2831 22.292Z" fill="white"/>
</svg>
