<svg width="25" height="24" viewBox="0 0 25 24" fill="none" xmlns="http://www.w3.org/2000/svg">
<path d="M12.4998 0C5.87104 0 0.498535 5.3725 0.498535 12C0.498371 13.5761 0.808681 15.1367 1.41174 16.5929C2.0148 18.049 2.8988 19.3721 4.01325 20.4865C5.12771 21.601 6.45078 22.485 7.90691 23.088C9.36304 23.6911 10.9237 24.0014 12.4998 24.0013C19.126 24.0013 24.4998 18.6287 24.4998 12C24.4998 5.3725 19.126 0 12.4998 0ZM13.6198 4.3325C14.7898 4.3325 15.1335 5.01125 15.1335 5.7875C15.1335 6.75625 14.3585 7.6525 13.0348 7.6525C11.9273 7.6525 11.3998 7.09625 11.4323 6.175C11.4323 5.39875 12.081 4.3325 13.6198 4.3325ZM10.6223 19.1875C9.82228 19.1875 9.23853 18.7013 9.79729 16.57L10.7135 12.7887C10.8723 12.1838 10.8985 11.9413 10.7135 11.9413C10.4748 11.9413 9.43604 12.3588 8.82353 12.7712L8.42478 12.1175C10.3685 10.4938 12.6035 9.54125 13.5598 9.54125C14.3598 9.54125 14.4923 10.4863 14.0935 11.9413L13.0435 15.9163C12.8573 16.6188 12.9373 16.8612 13.1235 16.8612C13.3635 16.8612 14.1485 16.5713 14.921 15.9625L15.3735 16.57C13.4823 18.46 11.421 19.1875 10.6223 19.1875Z" fill="white"/>
</svg>
