<svg width="21" height="14" viewBox="0 0 21 14" fill="none" xmlns="http://www.w3.org/2000/svg">
<path d="M13.3392 1.89026H7.66113V12.1097H13.3392V1.89026Z" fill="#FF5F00"/>
<path d="M8.02101 6.99967C8.02101 5.01356 8.94032 3.11773 10.4905 1.88995C7.67852 -0.330884 3.6047 0.156616 1.38753 2.99134C-0.829637 5.808 -0.342942 9.88856 2.4871 12.1094C4.84847 13.9691 8.14719 13.9691 10.5086 12.1094C8.94032 10.8816 8.02101 8.98578 8.02101 6.99967Z" fill="#EB001B"/>
<path d="M20.9998 7.00004C20.9998 10.5931 18.0976 13.5 14.5105 13.5C13.0504 13.5 11.6444 13.0125 10.5088 12.1098C13.3208 9.88893 13.8075 5.80837 11.5903 2.97365C11.2659 2.57643 10.9054 2.19726 10.5088 1.89032C13.3208 -0.330518 17.4127 0.156983 19.6118 2.9917C20.5131 4.1292 20.9998 5.53754 20.9998 7.00004Z" fill="#F79E1B"/>
<path d="M20.3869 11.0265V10.8098H20.4771V10.7737H20.2607V10.8098H20.3509V11.0265H20.3869ZM20.8015 11.0265V10.7737H20.7294L20.6573 10.9542L20.5852 10.7737H20.5131V11.0265H20.5672V10.8278L20.6393 10.9903H20.6934L20.7655 10.8278V11.0265H20.8015Z" fill="#F79E1B"/>
</svg>
