<svg width="54" height="14" viewBox="0 0 54 14" fill="none" xmlns="http://www.w3.org/2000/svg">
<path d="M47.1091 3.27025L45.9567 10.4723C45.9524 10.4987 45.954 10.5258 45.9613 10.5516C45.9686 10.5773 45.9815 10.6012 45.999 10.6215C46.0166 10.6418 46.0384 10.6581 46.063 10.6691C46.0875 10.6801 46.1142 10.6857 46.1411 10.6854H47.5049C47.553 10.6858 47.5997 10.6691 47.6365 10.6382C47.6733 10.6073 47.6977 10.5644 47.7054 10.5171L48.8578 3.31511C48.8621 3.28866 48.8606 3.2616 48.8533 3.23581C48.8459 3.21003 48.833 3.18614 48.8155 3.16583C48.7979 3.14553 48.7761 3.12929 48.7515 3.11825C48.727 3.10722 48.7003 3.10166 48.6734 3.10197H47.3096C47.2613 3.10102 47.2144 3.11757 47.1775 3.14854C47.1406 3.17951 47.1163 3.22277 47.1091 3.27025ZM45.6528 5.37197H44.3588C44.3108 5.3715 44.2642 5.38819 44.2274 5.41902C44.1907 5.44985 44.1663 5.49276 44.1586 5.53997L44.1158 5.80511C44.1158 5.80511 43.1108 4.72111 41.3314 5.45368C40.3106 5.87311 39.8205 6.73968 39.612 7.37454C39.612 7.37454 38.9502 9.30397 40.447 10.366C40.447 10.366 41.8349 11.3874 43.3978 10.3031L43.3708 10.4723C43.3645 10.512 43.3715 10.5527 43.3907 10.5881C43.4099 10.6235 43.4402 10.6516 43.477 10.6683C43.5015 10.6797 43.5282 10.6854 43.5552 10.6854H44.85C44.8983 10.6863 44.9452 10.6698 44.9821 10.6388C45.019 10.6079 45.0433 10.5646 45.0505 10.5171L45.8381 5.58511C45.8425 5.55869 45.841 5.53163 45.8336 5.50589C45.8262 5.48014 45.8131 5.45636 45.7953 5.43625C45.7778 5.41577 45.7559 5.39937 45.7313 5.38821C45.7067 5.37705 45.6799 5.37169 45.6528 5.37197ZM43.7488 8.09768C43.6983 8.44227 43.5231 8.7567 43.2562 8.98197C42.988 9.20806 42.6468 9.33013 42.2954 9.32568C42.1575 9.32728 42.0203 9.30742 41.8886 9.26682C41.33 9.08968 41.0111 8.55997 41.1028 7.98568C41.1537 7.64126 41.329 7.32708 41.5959 7.10197C41.8638 6.87575 42.2048 6.7533 42.5562 6.75711C42.694 6.75569 42.8313 6.77574 42.9629 6.81654C43.525 6.99254 43.8424 7.52311 43.7502 8.09797H43.7488V8.09768ZM36.8391 8.23397C37.5408 8.23397 38.2195 7.98597 38.7526 7.53511C39.2846 7.08577 39.6368 6.46146 39.7453 5.77568C39.9719 4.34911 38.8434 3.10397 37.2435 3.10397H34.6661C34.618 3.10351 34.5714 3.12024 34.5346 3.15113C34.4979 3.18202 34.4735 3.225 34.4659 3.27225L33.3133 10.4743C33.307 10.514 33.314 10.5547 33.3332 10.5901C33.3524 10.6255 33.3827 10.6536 33.4195 10.6703C33.4442 10.6817 33.4707 10.6874 33.4977 10.6874H34.8623C34.9104 10.6879 34.9571 10.6711 34.9938 10.6402C35.0306 10.6093 35.0549 10.5664 35.0625 10.5191L35.4009 8.40425C35.408 8.35672 35.4323 8.31338 35.4692 8.28236C35.5061 8.25133 35.5531 8.23474 35.6014 8.23568L36.8391 8.23397ZM37.9805 5.71082C37.8964 6.23825 37.4833 6.62654 36.6931 6.62654H35.6829L35.9897 4.70854H36.9818C37.7987 4.70997 38.0647 5.18568 37.9805 5.71225V5.71082Z" fill="#0070E0"/>
<path d="M31.7587 5.49426L30.1979 8.09569L29.4057 5.5134C29.3933 5.47219 29.3678 5.43611 29.333 5.4106C29.2982 5.38509 29.2559 5.37153 29.2127 5.37197H27.8041C27.7677 5.37148 27.7323 5.38411 27.7045 5.40753C27.6766 5.43094 27.6583 5.46357 27.6527 5.4994C27.6493 5.52315 27.6518 5.54738 27.6599 5.56997L29.0794 9.91969L27.7955 11.9694C27.7846 11.9863 27.7773 12.0052 27.774 12.025C27.7707 12.0448 27.7715 12.065 27.7763 12.0845C27.7811 12.1039 27.7899 12.1222 27.8021 12.1382C27.8143 12.1542 27.8296 12.1675 27.8472 12.1774C27.8707 12.1908 27.8974 12.1977 27.9245 12.1974H29.4416C29.4849 12.1975 29.5275 12.1866 29.5653 12.1656C29.6031 12.1445 29.6348 12.1142 29.6573 12.0774L33.6223 5.60112C33.6367 5.57856 33.6446 5.55253 33.6451 5.52584C33.6457 5.49915 33.6389 5.47281 33.6255 5.44969C33.6121 5.42648 33.5927 5.40727 33.5693 5.39406C33.5459 5.38084 33.5194 5.37411 33.4925 5.37454H31.9759C31.9324 5.37415 31.8895 5.38496 31.8515 5.40594C31.8134 5.42692 31.7815 5.45735 31.7587 5.49426ZM27.0056 5.37197H25.7105C25.6623 5.37151 25.6155 5.38828 25.5787 5.41922C25.5419 5.45016 25.5175 5.49321 25.51 5.54054L25.468 5.8054C25.468 5.8054 24.4621 4.7214 22.6827 5.45397C21.6622 5.8734 21.1719 6.73997 20.9642 7.37483C20.9642 7.37483 20.3018 9.30426 21.7983 10.3663C21.7983 10.3663 23.1865 11.3877 24.7494 10.3034L24.7224 10.4725C24.716 10.5123 24.723 10.553 24.7422 10.5884C24.7614 10.6238 24.7918 10.652 24.8286 10.6685C24.8531 10.68 24.8798 10.6857 24.9068 10.6857H26.2016C26.2497 10.686 26.2963 10.6692 26.333 10.6384C26.3697 10.6075 26.3941 10.5646 26.4018 10.5174L27.1897 5.5854C27.1961 5.54561 27.1892 5.50483 27.17 5.46935C27.1508 5.43388 27.1204 5.40568 27.0834 5.38912C27.0589 5.3779 27.0326 5.37205 27.0056 5.37197ZM25.1012 8.09826C25.0503 8.44243 24.875 8.75636 24.6083 8.9814C24.3404 9.20747 23.9994 9.32981 23.6481 9.32597C23.5105 9.32749 23.3734 9.30764 23.242 9.26712C22.6836 9.08997 22.365 8.56026 22.4567 7.98569C22.5077 7.64051 22.6837 7.32575 22.9516 7.10054C23.2205 6.87435 23.5625 6.75247 23.9147 6.7574C24.0525 6.75597 24.1901 6.77597 24.3217 6.81683C24.8781 6.99283 25.1949 7.52311 25.103 8.09826H25.1012ZM18.1918 8.23426C18.8923 8.2339 19.5699 7.9859 20.1036 7.53454C20.6352 7.08522 20.987 6.46113 21.0952 5.77569C21.3221 4.3494 20.1933 3.10426 18.5939 3.10426H16.0163C15.9682 3.10378 15.9215 3.12046 15.8848 3.15129C15.848 3.18211 15.8235 3.22503 15.8158 3.27226L14.6669 10.4723C14.6605 10.512 14.6674 10.5528 14.6866 10.5883C14.7058 10.6238 14.7362 10.652 14.7732 10.6685C14.7976 10.6797 14.8243 10.6857 14.8513 10.6857H16.2151C16.2633 10.6861 16.31 10.6694 16.3468 10.6384C16.3836 10.6075 16.408 10.5644 16.4156 10.5171L16.7533 8.40226C16.7605 8.35477 16.7848 8.31151 16.8217 8.28054C16.8586 8.24958 16.9056 8.23302 16.9538 8.23397L18.1918 8.23426ZM19.3333 5.71083C19.2491 6.23826 18.8364 6.62654 18.0462 6.62654H17.036L17.3422 4.70854H18.3343C19.1515 4.70997 19.4172 5.18597 19.3333 5.71226V5.71083Z" fill="#003087"/>
<path d="M9.37522 3.47423C9.40595 1.88394 8.08726 0.66394 6.27395 0.66394H2.52325C2.43584 0.6639 2.3513 0.694906 2.28484 0.751374C2.21838 0.807843 2.17438 0.886061 2.16076 0.97194L0.65795 10.3128C0.651227 10.3551 0.653805 10.3984 0.665508 10.4396C0.677211 10.4809 0.69776 10.5191 0.725741 10.5517C0.753722 10.5843 0.78847 10.6105 0.827593 10.6284C0.866716 10.6463 0.909283 10.6556 0.952365 10.6557H3.17441L2.82714 12.8185C2.82042 12.8608 2.823 12.9041 2.8347 12.9454C2.8464 12.9866 2.86695 13.0248 2.89493 13.0574C2.92291 13.09 2.95766 13.1162 2.99678 13.1341C3.03591 13.1521 3.07847 13.1614 3.12156 13.1614H4.93171C5.01903 13.1614 5.09687 13.1302 5.1635 13.0739C5.22957 13.0174 5.24048 12.9394 5.25427 12.8534L5.78565 9.74365C5.79915 9.65794 5.8431 9.54651 5.90945 9.48994C5.9758 9.43337 6.03382 9.40251 6.12143 9.40251H7.229C9.00497 9.40251 10.5115 8.1468 10.787 6.40051C10.982 5.16108 10.4477 4.03337 9.37522 3.47423Z" fill="#9BAAD0"/>
<path d="M3.65515 7.21086L3.10165 10.7017L2.7541 12.8914C2.74741 12.9338 2.75003 12.977 2.76178 13.0183C2.77352 13.0595 2.7941 13.0977 2.82211 13.1302C2.85011 13.1628 2.88488 13.1889 2.92402 13.2069C2.96315 13.2248 3.00572 13.234 3.0488 13.234H4.96465C5.05197 13.234 5.13641 13.2029 5.20276 13.1464C5.26911 13.09 5.31301 13.0118 5.32656 12.926L5.83152 9.74343C5.84513 9.6576 5.8891 9.57942 5.95549 9.52295C6.02189 9.46649 6.10637 9.43545 6.19372 9.43543H7.3214C9.09737 9.43543 10.6039 8.14686 10.8797 6.40057C11.075 5.16114 10.4477 4.03314 9.37513 3.474C9.37226 3.606 9.36077 3.73771 9.34037 3.86828C9.06492 5.614 7.5578 6.90286 5.7824 6.90286H4.01735C3.92997 6.90295 3.84549 6.93405 3.7791 6.99056C3.71271 7.04707 3.66876 7.125 3.65515 7.21086Z" fill="#0070E0"/>
<path d="M3.10147 10.7017H0.872537C0.829464 10.7017 0.786905 10.6924 0.747793 10.6744C0.708682 10.6565 0.673949 10.6303 0.645989 10.5977C0.61803 10.5651 0.597509 10.5269 0.585842 10.4857C0.574175 10.4444 0.571639 10.4012 0.57841 10.3588L2.08122 0.879411C2.09483 0.793581 2.13879 0.7154 2.20519 0.658938C2.27159 0.602475 2.35607 0.571438 2.44342 0.571411H6.27397C8.08728 0.571411 9.40597 1.88398 9.37524 3.47398C8.92399 3.23855 8.39376 3.10398 7.81297 3.10398H4.6195C4.5321 3.10394 4.44756 3.13495 4.3811 3.19142C4.31464 3.24788 4.27064 3.3261 4.25702 3.41198L3.65555 7.21084L3.10119 10.7017H3.10147Z" fill="#003087"/>
</svg>
