<svg width="18" height="18" viewBox="0 0 18 18" fill="none" xmlns="http://www.w3.org/2000/svg">
<path d="M17.6829 15.9812L14.4256 12.7335C15.4766 11.3946 16.0468 9.74128 16.0447 8.0392C16.0447 6.52337 15.5952 5.04157 14.7531 3.7812C13.9109 2.52083 12.7139 1.53849 11.3135 0.958406C9.91302 0.378321 8.37201 0.226544 6.8853 0.522269C5.39859 0.817993 4.03296 1.54794 2.9611 2.61979C1.88925 3.69165 1.1593 5.05728 0.863577 6.54399C0.567853 8.0307 0.719629 9.57171 1.29971 10.9722C1.8798 12.3726 2.86214 13.5696 4.12251 14.4117C5.38288 15.2539 6.86467 15.7034 8.38051 15.7034C10.0826 15.7055 11.7359 15.1353 13.0748 14.0843L16.3225 17.3416C16.4116 17.4314 16.5176 17.5027 16.6343 17.5513C16.751 17.6 16.8763 17.625 17.0027 17.625C17.1292 17.625 17.2544 17.6 17.3712 17.5513C17.4879 17.5027 17.5939 17.4314 17.6829 17.3416C17.7727 17.2526 17.844 17.1466 17.8926 17.0299C17.9413 16.9131 17.9663 16.7879 17.9663 16.6614C17.9663 16.535 17.9413 16.4097 17.8926 16.293C17.844 16.1762 17.7727 16.0703 17.6829 15.9812ZM2.63236 8.0392C2.63236 6.90232 2.96948 5.79098 3.6011 4.8457C4.23271 3.90042 5.13045 3.16367 6.18079 2.7286C7.23112 2.29354 8.38688 2.17971 9.50192 2.4015C10.6169 2.62329 11.6412 3.17075 12.4451 3.97465C13.249 4.77854 13.7964 5.80276 14.0182 6.91779C14.24 8.03282 14.1262 9.18858 13.6911 10.2389C13.256 11.2893 12.5193 12.187 11.574 12.8186C10.6287 13.4502 9.51738 13.7873 8.38051 13.7873C6.856 13.7873 5.39394 13.1817 4.31595 12.1038C3.23797 11.0258 2.63236 9.5637 2.63236 8.0392Z" fill="#BCBCBC"/>
</svg>
